<?xml version="1.0" encoding="UTF-8" standalone="no"?>
<!-- Created with Inkscape (http://www.inkscape.org/) -->

<svg
   xmlns:dc="http://purl.org/dc/elements/1.1/"
   xmlns:cc="http://creativecommons.org/ns#"
   xmlns:rdf="http://www.w3.org/1999/02/22-rdf-syntax-ns#"
   xmlns:svg="http://www.w3.org/2000/svg"
   xmlns="http://www.w3.org/2000/svg"
   xmlns:sodipodi="http://sodipodi.sourceforge.net/DTD/sodipodi-0.dtd"
   xmlns:inkscape="http://www.inkscape.org/namespaces/inkscape"
   width="62.088711mm"
   height="62.088711mm"
   viewBox="0 0 62.088711 62.088711"
   version="1.1"
   id="svg919"
   inkscape:version="0.92.4 (5da689c313, 2019-01-14)"
   sodipodi:docname="favicon.svg"
   inkscape:export-filename="C:\Users\pichulin\Downloads\favicon.png"
   inkscape:export-xdpi="6.5454731"
   inkscape:export-ydpi="6.5454731">
  <defs
     id="defs913" />
  <sodipodi:namedview
     id="base"
     pagecolor="#ffffff"
     bordercolor="#666666"
     borderopacity="1.0"
     inkscape:pageopacity="0.0"
     inkscape:pageshadow="2"
     inkscape:zoom="1.979899"
     inkscape:cx="93.805721"
     inkscape:cy="102.559"
     inkscape:document-units="mm"
     inkscape:current-layer="layer1"
     showgrid="false"
     inkscape:window-width="1920"
     inkscape:window-height="1017"
     inkscape:window-x="-8"
     inkscape:window-y="-8"
     inkscape:window-maximized="1" />
  <metadata
     id="metadata916">
    <rdf:RDF>
      <cc:Work
         rdf:about="">
        <dc:format>image/svg+xml</dc:format>
        <dc:type
           rdf:resource="http://purl.org/dc/dcmitype/StillImage" />
        <dc:title></dc:title>
      </cc:Work>
    </rdf:RDF>
  </metadata>
  <g
     inkscape:label="Layer 1"
     inkscape:groupmode="layer"
     id="layer1"
     transform="translate(-55.890169,-45.217554)">
    <circle
       style="fill:#00a969;fill-opacity:1;stroke:none;stroke-width:6.08541679;stroke-miterlimit:4;stroke-dasharray:none;stroke-opacity:1"
       cx="86.934525"
       cy="76.261909"
       r="31.044355"
       id="circle4" />
    <path
       inkscape:connector-curvature="0"
       style="fill:#fafafa;stroke-width:0.26458332"
       d="m 86.934523,96.017549 c -1.55866,0 -2.82231,-1.26365 -2.82231,-2.82231 V 59.328573 c 0,-1.55866 1.26365,-2.82231 2.82231,-2.82231 1.55866,0 2.82231,1.26365 2.82231,2.82231 v 33.866666 c -2.64e-4,1.55866 -1.26365,2.82231 -2.82231,2.82231 z"
       id="path6" />
    <path
       inkscape:connector-curvature="0"
       style="fill:#fafafa;stroke-width:0.26458332"
       d="m 98.223235,73.439859 c -0.749035,0.0013 -1.467908,-0.29501 -1.998133,-0.824177 l -9.290844,-9.296399 -9.290842,9.296399 c -1.12104,1.08294 -2.907771,1.051719 -3.990711,-0.06932 -1.056481,-1.093787 -1.056481,-2.827602 0,-3.921388 L 84.941681,57.335996 c 1.10199,-1.101725 2.888457,-1.101725 3.990711,0 l 11.288978,11.288977 c 1.1004,1.103841 1.09775,2.890836 -0.006,3.991238 -0.528639,0.527315 -1.244866,0.823384 -1.991785,0.823648 z"
       id="path8" />
  </g>
</svg>
