<?xml version="1.0" encoding="UTF-8" standalone="no"?>
<svg

   xmlns="http://www.w3.org/2000/svg"
   version="1.1"
   viewBox="0 0 512.293 512.293"
>
<path
   style="fill:#e6eff8;fill-opacity:1"
   d="M402.148,149.606C384.338,63.054,299.735,7.328,213.183,25.138  C139.07,40.389,85.774,105.472,85.434,181.136c0,3.605,0.149,7.296,0.469,11.2C33.178,197.917-5.04,245.183,0.541,297.908  c5.173,48.87,46.416,85.943,95.559,85.895h11.2c-0.256-3.541-0.533-7.061-0.533-10.667c0-76.583,62.083-138.667,138.667-138.667  S384.1,296.553,384.1,373.136c0,3.605-0.277,7.125-0.533,10.667h11.2c64.73,0.177,117.348-52.154,117.525-116.885  C512.462,204.807,464.148,153.348,402.148,149.606L402.148,149.606z"
   id="path2" />
<circle
   style="fill:#00a969;fill-opacity:1"
   cx="245.434"
   cy="373.136"
   r="117.333"
   id="circle4" />
	<path
   style="fill:#FAFAFA;"
   d="M245.434,447.803c-5.891,0-10.667-4.776-10.667-10.667v-128c0-5.891,4.776-10.667,10.667-10.667   s10.667,4.776,10.667,10.667v128C256.1,443.027,251.325,447.803,245.434,447.803z"
   id="path6" />
	<path
   style="fill:#FAFAFA;"
   d="M288.1,362.47c-2.831,0.005-5.548-1.115-7.552-3.115l-35.115-35.136l-35.115,35.136   c-4.237,4.093-10.99,3.975-15.083-0.262c-3.993-4.134-3.993-10.687,0-14.821l42.667-42.667c4.165-4.164,10.917-4.164,15.083,0   l42.667,42.667c4.159,4.172,4.149,10.926-0.024,15.085C293.63,361.35,290.923,362.469,288.1,362.47z"
   id="path8" />
<g
   id="g857"
   transform="matrix(1.3274539,0,0,1.3274539,150.58747,120.28765)"><path
     id="path825"
     d="M 0,11.883 V 38.118 L 22.93,25 Z"
     style="fill:#ff1635" /><g
     id="g835"
     style="fill:#0055a2"><path
       id="path827"
       d="m 34.28,24.203 c 0.411,-0.435 0.856,-0.91 1.334,-1.423 l 1.723,-1.841 c 0.591,-0.631 1.17,-1.257 1.739,-1.88 0.565,-0.62 1.096,-1.19 1.58,-1.702 a 0.534,0.534 0 0 0 0.157,-0.502 c -0.04,-0.203 -0.223,-0.407 -0.535,-0.407 h -1.021 a 0.632,0.632 0 0 0 -0.504,0.251 c -0.456,0.48 -0.945,1.007 -1.467,1.578 l -3.155,3.439 c -0.505,0.553 -0.967,1.052 -1.378,1.49 -0.075,0.074 -0.116,0.102 -0.115,0.104 a 1.24,1.24 0 0 1 -0.229,0.014 h -0.6 v -6.302 c 0,-0.333 -0.234,-0.574 -0.557,-0.574 H 30.39 A 0.536,0.536 0 0 0 29.833,17 v 14.674 c 0,0.346 0.244,0.597 0.58,0.597 h 0.84 c 0.322,0 0.556,-0.242 0.556,-0.575 v -6.504 h 0.554 c 0.102,0 0.158,0.008 0.17,0.002 0.019,0.015 0.059,0.047 0.125,0.111 l 6.517,6.679 c 0.115,0.151 0.245,0.239 0.388,0.267 0.067,0.013 0.137,0.02 0.216,0.02 h 1.133 a 0.508,0.508 0 0 0 0.514,-0.405 0.533,0.533 0 0 0 -0.149,-0.497 L 34.28,24.204"
        /><path
       id="path829"
       transform="translate(0.8)"
       d="m 50.372,17.865 c -0.51,-0.457 -1.15,-0.82 -1.898,-1.078 -0.74,-0.255 -1.599,-0.384 -2.55,-0.384 a 80.29,80.29 0 0 0 -3.265,0.067 c -0.324,0 -0.557,0.242 -0.557,0.574 V 31.72 c 0,0.32 0.233,0.552 0.557,0.552 h 0.862 a 0.536,0.536 0 0 0 0.556,-0.552 v -4.945 c 0.086,0.003 0.176,0.008 0.27,0.013 0.285,0.016 0.719,0.023 1.305,0.023 a 8.63,8.63 0 0 0 2.367,-0.32 5.974,5.974 0 0 0 2.009,-0.985 4.844,4.844 0 0 0 1.384,-1.68 c 0.34,-0.673 0.512,-1.465 0.512,-2.354 0,-0.7 -0.13,-1.365 -0.386,-1.976 a 4.5,4.5 0 0 0 -1.166,-1.63 m -0.423,3.652 c 0,0.628 -0.113,1.161 -0.336,1.583 a 2.863,2.863 0 0 1 -0.907,1.035 c -0.39,0.273 -0.845,0.474 -1.354,0.595 -0.531,0.126 -1.103,0.19 -1.7,0.19 a 53.79,53.79 0 0 1 -1.575,-0.02 v -6.608 c 0.147,-0.008 0.31,-0.015 0.492,-0.022 0.798,-0.03 2.018,-0.08 2.978,0.196 0.485,0.141 0.913,0.35 1.269,0.622 0.346,0.266 0.624,0.605 0.828,1.007 0.203,0.401 0.305,0.88 0.305,1.422"
        /><path
       id="path831"
       transform="translate(0.6)"
       d="m 65.359,16.448 h -0.93 c -0.242,0 -0.45,0.125 -0.527,0.284 l -5.989,8.855 c -0.303,0.451 -0.606,0.905 -0.907,1.363 -0.304,0.458 -0.592,0.897 -0.865,1.318 l -0.37,0.578 c 0.004,-0.293 0.007,-0.6 0.007,-0.924 V 17 A 0.536,0.536 0 0 0 55.221,16.448 H 54.36 A 0.532,0.532 0 0 0 53.824,17 v 14.696 c 0,0.332 0.235,0.575 0.557,0.575 h 0.999 c 0.2,0 0.382,-0.094 0.527,-0.284 l 5.9,-8.68 1.79,-2.718 c 0.132,-0.199 0.256,-0.391 0.373,-0.577 a 103.724,103.724 0 0 0 -0.03,2.662 v 9.044 c 0,0.32 0.233,0.552 0.557,0.552 h 0.861 a 0.531,0.531 0 0 0 0.535,-0.552 V 17 c 0,-0.313 -0.23,-0.55 -0.535,-0.55"
        /><path
       id="path833"
       d="M 80.213,16.448 H 69.598 A 0.535,0.535 0 0 0 69.043,17 v 14.696 c 0,0.332 0.233,0.575 0.555,0.575 h 0.863 c 0.323,0 0.558,-0.242 0.558,-0.575 v -13.36 h 7.775 v 13.382 c 0,0.32 0.233,0.552 0.557,0.552 h 0.862 a 0.536,0.536 0 0 0 0.556,-0.552 V 17.022 c 0,-0.332 -0.233,-0.574 -0.556,-0.574 m 13.863,1.862 0.133,-0.154 A 0.543,0.543 0 0 0 94.327,17.7 l -0.12,-0.788 a 0.563,0.563 0 0 0 -0.57,-0.464 h -10.93 c -0.244,0 -0.454,0.151 -0.567,0.451 l -0.188,0.795 a 0.545,0.545 0 0 0 0.116,0.462 l 0.207,0.182 h 4.887 v 13.358 c 0,0.332 0.244,0.575 0.58,0.575 h 0.816 c 0.336,0 0.58,-0.242 0.58,-0.575 V 18.338 h 4.658 l 0.28,-0.028 m 13.306,2.822 c -0.327,-0.98 -0.805,-1.838 -1.423,-2.553 a 6.806,6.806 0 0 0 -2.242,-1.705 c -1.667,-0.797 -3.946,-0.85 -5.757,-0.063 a 6.564,6.564 0 0 0 -2.26,1.625 c -0.634,0.699 -1.136,1.557 -1.494,2.551 -0.356,0.988 -0.537,2.11 -0.537,3.338 0,1.148 0.16,2.228 0.475,3.212 a 7.59,7.59 0 0 0 1.408,2.598 6.618,6.618 0 0 0 2.273,1.734 c 0.887,0.417 1.905,0.626 3.023,0.626 0.977,0 1.908,-0.18 2.77,-0.54 a 6.196,6.196 0 0 0 2.256,-1.608 c 0.627,-0.699 1.12,-1.57 1.472,-2.587 0.346,-1.01 0.523,-2.18 0.523,-3.48 a 9.95,9.95 0 0 0 -0.487,-3.148 m -1.512,3.17 c 0,0.96 -0.116,1.845 -0.345,2.632 -0.225,0.774 -0.558,1.441 -0.989,1.986 a 4.35,4.35 0 0 1 -1.566,1.245 c -0.617,0.292 -1.33,0.44 -2.122,0.44 -0.845,0 -1.597,-0.169 -2.231,-0.5 a 4.777,4.777 0 0 1 -1.61,-1.347 6.155,6.155 0 0 1 -0.995,-2.006 8.62,8.62 0 0 1 -0.345,-2.449 c 0,-1.037 0.14,-1.954 0.418,-2.729 0.274,-0.766 0.645,-1.413 1.103,-1.922 0.454,-0.503 0.99,-0.89 1.591,-1.147 a 4.936,4.936 0 0 1 1.957,-0.391 c 0.758,0 1.459,0.155 2.082,0.46 a 4.79,4.79 0 0 1 1.609,1.277 6.182,6.182 0 0 1 1.058,1.963 c 0.255,0.76 0.385,1.596 0.385,2.489"
        /></g><path
     id="path837"
     d="M 121.163,16.448 H 110.55 A 0.536,0.536 0 0 0 109.993,17 v 14.696 c 0,0.332 0.234,0.575 0.557,0.575 h 0.862 c 0.323,0 0.557,-0.242 0.557,-0.575 v -13.36 h 7.776 v 13.382 c 0,0.32 0.234,0.552 0.557,0.552 h 0.86 a 0.536,0.536 0 0 0 0.558,-0.552 V 17.022 c 0,-0.332 -0.234,-0.574 -0.557,-0.574 m 11.954,1.417 c -0.509,-0.457 -1.148,-0.82 -1.898,-1.078 -0.74,-0.255 -1.598,-0.384 -2.548,-0.384 -0.7,0 -1.35,0.008 -1.95,0.023 -0.603,0.015 -1.05,0.03 -1.316,0.044 -0.324,0 -0.558,0.242 -0.558,0.574 V 31.72 c 0,0.32 0.234,0.552 0.558,0.552 h 0.861 a 0.535,0.535 0 0 0 0.556,-0.552 v -4.945 c 0.086,0.003 0.176,0.008 0.27,0.013 0.285,0.016 0.72,0.023 1.307,0.023 a 8.65,8.65 0 0 0 2.366,-0.32 5.981,5.981 0 0 0 2.01,-0.985 4.835,4.835 0 0 0 1.382,-1.68 c 0.34,-0.673 0.512,-1.465 0.512,-2.354 0,-0.697 -0.129,-1.363 -0.384,-1.977 a 4.51,4.51 0 0 0 -1.168,-1.629 m -0.423,3.652 c 0,0.627 -0.112,1.16 -0.335,1.583 -0.221,0.421 -0.526,0.77 -0.906,1.036 -0.39,0.272 -0.845,0.473 -1.355,0.594 -0.53,0.126 -1.102,0.19 -1.7,0.19 a 54.056,54.056 0 0 1 -1.576,-0.02 v -6.608 c 0.147,-0.007 0.31,-0.015 0.493,-0.022 0.797,-0.03 2.02,-0.08 2.976,0.196 0.488,0.141 0.915,0.35 1.271,0.624 0.347,0.263 0.624,0.602 0.827,1.005 0.202,0.401 0.305,0.88 0.305,1.422 m 16.817,-0.386 c -0.325,-0.978 -0.804,-1.837 -1.421,-2.553 a 6.817,6.817 0 0 0 -2.244,-1.705 c -0.872,-0.417 -1.867,-0.628 -2.958,-0.628 a 6.97,6.97 0 0 0 -2.798,0.565 6.564,6.564 0 0 0 -2.26,1.625 c -0.635,0.701 -1.138,1.56 -1.493,2.551 -0.357,0.986 -0.536,2.108 -0.536,3.338 0,1.15 0.159,2.23 0.474,3.213 0.318,0.995 0.794,1.87 1.409,2.597 a 6.607,6.607 0 0 0 2.27,1.734 c 0.889,0.417 1.906,0.626 3.025,0.626 0.976,0 1.907,-0.18 2.77,-0.54 a 6.213,6.213 0 0 0 2.256,-1.608 c 0.626,-0.7 1.12,-1.57 1.471,-2.587 0.348,-1.01 0.523,-2.18 0.523,-3.48 a 9.932,9.932 0 0 0 -0.488,-3.148 M 148,24.302 c 0,0.958 -0.116,1.843 -0.344,2.632 -0.226,0.775 -0.56,1.443 -0.99,1.986 a 4.36,4.36 0 0 1 -1.564,1.245 c -0.618,0.292 -1.332,0.44 -2.123,0.44 -0.846,0 -1.597,-0.169 -2.23,-0.5 a 4.796,4.796 0 0 1 -1.612,-1.347 6.149,6.149 0 0 1 -0.993,-2.006 8.579,8.579 0 0 1 -0.346,-2.45 c 0,-1.038 0.14,-1.956 0.417,-2.729 0.273,-0.764 0.644,-1.411 1.103,-1.921 a 4.55,4.55 0 0 1 1.592,-1.148 4.931,4.931 0 0 1 1.955,-0.391 c 0.76,0 1.46,0.155 2.083,0.46 a 4.799,4.799 0 0 1 1.61,1.276 c 0.449,0.549 0.804,1.21 1.056,1.965 0.257,0.757 0.386,1.594 0.386,2.489"
     style="fill:#ff1635" /><path
     id="path839"
     d="M 50.2,35.654 49.975,36.15 C 45.986,42.822 38.69,46.962 30.9,46.962 c -8.615,0 -16.518,-5.039 -20.133,-12.835 l -2.739,1.41 C 12.166,44.323 21.144,50 30.9,50 39.521,50 47.413,45.716 52.098,38.52 L 150,38.518 V 35.652 L 50.2,35.654 M 49.45,13.045 h 3.586 A 25.246,25.246 0 0 0 30.9,0 C 21.144,0 12.166,5.677 8.03,14.464 l 2.737,1.41 C 14.381,8.075 22.284,3.037 30.9,3.037 c 7.466,0 14.471,3.812 18.552,10.007"
     style="fill:#0055a2" /></g></svg>